<!DOCTYPE svg PUBLIC "-//W3C//DTD SVG 1.1//EN" "http://www.w3.org/Graphics/SVG/1.1/DTD/svg11.dtd">
<!-- Uploaded to: SVG Repo, www.svgrepo.com, Transformed by: SVG Repo Mixer Tools -->
<svg fill="#5e2386" width="800px" height="800px" viewBox="-46.08 -46.08 604.16 604.16" xmlns="http://www.w3.org/2000/svg" stroke="#5e2386" stroke-width="0.00512">
<g id="SVGRepo_bgCarrier" stroke-width="0"/>
<g id="SVGRepo_tracerCarrier" stroke-linecap="round" stroke-linejoin="round" stroke="#CCCCCC" stroke-width="25.6">
<title>ionicons-v5-p</title>
<path d="M432,272a48.09,48.09,0,0,0-45.25,32H347.53l-28.35-85.06a16,16,0,0,0-30.56.66L244.11,375.36l-52.33-314a16,16,0,0,0-31.3-1.25L99.51,304H48a16,16,0,0,0,0,32h64a16,16,0,0,0,15.52-12.12l45.34-181.37,51.36,308.12A16,16,0,0,0,239.1,464c.3,0,.6,0,.91,0a16,16,0,0,0,15.37-11.6l49.8-174.28,15.64,46.94A16,16,0,0,0,336,336h50.75A48,48,0,1,0,432,272Z"/>
</g>
<g id="SVGRepo_iconCarrier">
<title>ionicons-v5-p</title>
<path d="M432,272a48.09,48.09,0,0,0-45.25,32H347.53l-28.35-85.06a16,16,0,0,0-30.56.66L244.11,375.36l-52.33-314a16,16,0,0,0-31.3-1.25L99.51,304H48a16,16,0,0,0,0,32h64a16,16,0,0,0,15.52-12.12l45.34-181.37,51.36,308.12A16,16,0,0,0,239.1,464c.3,0,.6,0,.91,0a16,16,0,0,0,15.37-11.6l49.8-174.28,15.64,46.94A16,16,0,0,0,336,336h50.75A48,48,0,1,0,432,272Z"/>
</g>
</svg>